<mxfile host="app.diagrams.net" modified="2023-09-12T14:04:21.023Z" agent="Mozilla/5.0 (X11; Linux x86_64) AppleWebKit/537.36 (KHTML, like Gecko) Chrome/116.0.0.0 Safari/537.36" etag="S0aH6UbqFhc3lPKw1UT6" version="21.7.4" type="device">
  <diagram id="C5RBs43oDa-KdzZeNtuy" name="Page-1">
    <mxGraphModel dx="650" dy="367" grid="1" gridSize="10" guides="1" tooltips="1" connect="1" arrows="1" fold="1" page="1" pageScale="1" pageWidth="827" pageHeight="1169" math="0" shadow="0">
      <root>
        <mxCell id="WIyWlLk6GJQsqaUBKTNV-0" />
        <mxCell id="WIyWlLk6GJQsqaUBKTNV-1" parent="WIyWlLk6GJQsqaUBKTNV-0" />
        <mxCell id="WIyWlLk6GJQsqaUBKTNV-2" value="" style="rounded=0;html=1;jettySize=auto;orthogonalLoop=1;fontSize=11;endArrow=block;endFill=0;endSize=8;strokeWidth=1;shadow=0;labelBackgroundColor=none;edgeStyle=orthogonalEdgeStyle;entryX=0.5;entryY=0;entryDx=0;entryDy=0;exitX=0.5;exitY=1;exitDx=0;exitDy=0;" parent="WIyWlLk6GJQsqaUBKTNV-1" source="WIyWlLk6GJQsqaUBKTNV-3" target="-PPpTfQ4AtpIcLz1wX6L-0" edge="1">
          <mxGeometry relative="1" as="geometry">
            <mxPoint x="223.5" y="240" as="targetPoint" />
          </mxGeometry>
        </mxCell>
        <mxCell id="WIyWlLk6GJQsqaUBKTNV-3" value="Custom DB" style="rounded=1;whiteSpace=wrap;html=1;fontSize=12;glass=0;strokeWidth=1;shadow=0;" parent="WIyWlLk6GJQsqaUBKTNV-1" vertex="1">
          <mxGeometry x="163.5" y="120" width="120" height="40" as="geometry" />
        </mxCell>
        <mxCell id="-PPpTfQ4AtpIcLz1wX6L-0" value="Create DB" style="rounded=1;whiteSpace=wrap;html=1;" vertex="1" parent="WIyWlLk6GJQsqaUBKTNV-1">
          <mxGeometry x="43.5" y="230" width="120" height="60" as="geometry" />
        </mxCell>
        <mxCell id="-PPpTfQ4AtpIcLz1wX6L-1" value="Open DB" style="rounded=1;whiteSpace=wrap;html=1;" vertex="1" parent="WIyWlLk6GJQsqaUBKTNV-1">
          <mxGeometry x="283.5" y="230" width="120" height="60" as="geometry" />
        </mxCell>
        <mxCell id="-PPpTfQ4AtpIcLz1wX6L-2" value="" style="rounded=0;html=1;jettySize=auto;orthogonalLoop=1;fontSize=11;endArrow=block;endFill=0;endSize=8;strokeWidth=1;shadow=0;labelBackgroundColor=none;edgeStyle=orthogonalEdgeStyle;exitX=0.5;exitY=1;exitDx=0;exitDy=0;" edge="1" parent="WIyWlLk6GJQsqaUBKTNV-1" source="WIyWlLk6GJQsqaUBKTNV-3">
          <mxGeometry relative="1" as="geometry">
            <mxPoint x="173.5" y="150" as="sourcePoint" />
            <mxPoint x="350" y="230" as="targetPoint" />
            <Array as="points">
              <mxPoint x="224" y="195" />
              <mxPoint x="350" y="195" />
            </Array>
          </mxGeometry>
        </mxCell>
        <mxCell id="-PPpTfQ4AtpIcLz1wX6L-3" value="Add Table" style="rounded=1;whiteSpace=wrap;html=1;" vertex="1" parent="WIyWlLk6GJQsqaUBKTNV-1">
          <mxGeometry x="43.5" y="340" width="120" height="60" as="geometry" />
        </mxCell>
        <mxCell id="-PPpTfQ4AtpIcLz1wX6L-4" value="Add Row" style="rounded=1;whiteSpace=wrap;html=1;" vertex="1" parent="WIyWlLk6GJQsqaUBKTNV-1">
          <mxGeometry x="43.5" y="555" width="120" height="60" as="geometry" />
        </mxCell>
        <mxCell id="-PPpTfQ4AtpIcLz1wX6L-5" value="Add Column" style="rounded=1;whiteSpace=wrap;html=1;" vertex="1" parent="WIyWlLk6GJQsqaUBKTNV-1">
          <mxGeometry x="43.5" y="450" width="120" height="60" as="geometry" />
        </mxCell>
        <mxCell id="-PPpTfQ4AtpIcLz1wX6L-6" value="Delete Row" style="rounded=1;whiteSpace=wrap;html=1;" vertex="1" parent="WIyWlLk6GJQsqaUBKTNV-1">
          <mxGeometry x="220" y="555" width="120" height="60" as="geometry" />
        </mxCell>
        <mxCell id="-PPpTfQ4AtpIcLz1wX6L-7" value="Change&amp;nbsp;Row" style="rounded=1;whiteSpace=wrap;html=1;" vertex="1" parent="WIyWlLk6GJQsqaUBKTNV-1">
          <mxGeometry x="220" y="630" width="120" height="60" as="geometry" />
        </mxCell>
        <mxCell id="-PPpTfQ4AtpIcLz1wX6L-8" value="Change&amp;nbsp;Column" style="rounded=1;whiteSpace=wrap;html=1;" vertex="1" parent="WIyWlLk6GJQsqaUBKTNV-1">
          <mxGeometry x="220" y="450" width="120" height="60" as="geometry" />
        </mxCell>
        <mxCell id="-PPpTfQ4AtpIcLz1wX6L-9" value="Save DB" style="rounded=1;whiteSpace=wrap;html=1;" vertex="1" parent="WIyWlLk6GJQsqaUBKTNV-1">
          <mxGeometry x="163.5" y="740" width="120" height="60" as="geometry" />
        </mxCell>
        <mxCell id="-PPpTfQ4AtpIcLz1wX6L-11" style="edgeStyle=orthogonalEdgeStyle;rounded=0;orthogonalLoop=1;jettySize=auto;html=1;" edge="1" parent="WIyWlLk6GJQsqaUBKTNV-1">
          <mxGeometry relative="1" as="geometry">
            <mxPoint x="393.5" y="160" as="sourcePoint" />
            <mxPoint x="393.5" y="160" as="targetPoint" />
          </mxGeometry>
        </mxCell>
        <mxCell id="-PPpTfQ4AtpIcLz1wX6L-12" value="" style="ellipse;whiteSpace=wrap;html=1;aspect=fixed;treeFolding=0;treeMoving=0;collapsible=0;dropTarget=0;container=0;fixDash=0;fillColor=#000000;fontColor=#ffffff;strokeColor=#000000;" vertex="1" parent="WIyWlLk6GJQsqaUBKTNV-1">
          <mxGeometry x="208.5" y="30" width="30" height="30" as="geometry" />
        </mxCell>
        <mxCell id="-PPpTfQ4AtpIcLz1wX6L-13" value="" style="endArrow=classic;html=1;rounded=0;fontFamily=Helvetica;fontSize=12;fontColor=default;exitX=0.5;exitY=1;exitDx=0;exitDy=0;entryX=0.5;entryY=0;entryDx=0;entryDy=0;" edge="1" parent="WIyWlLk6GJQsqaUBKTNV-1" source="-PPpTfQ4AtpIcLz1wX6L-12" target="WIyWlLk6GJQsqaUBKTNV-3">
          <mxGeometry width="50" height="50" relative="1" as="geometry">
            <mxPoint x="360" y="140" as="sourcePoint" />
            <mxPoint x="410" y="90" as="targetPoint" />
          </mxGeometry>
        </mxCell>
        <mxCell id="-PPpTfQ4AtpIcLz1wX6L-14" value="" style="rounded=0;html=1;jettySize=auto;orthogonalLoop=1;fontSize=11;endArrow=block;endFill=0;endSize=8;strokeWidth=1;shadow=0;labelBackgroundColor=none;edgeStyle=orthogonalEdgeStyle;entryX=0.5;entryY=0;entryDx=0;entryDy=0;exitX=0.5;exitY=1;exitDx=0;exitDy=0;" edge="1" parent="WIyWlLk6GJQsqaUBKTNV-1" source="-PPpTfQ4AtpIcLz1wX6L-4" target="-PPpTfQ4AtpIcLz1wX6L-9">
          <mxGeometry relative="1" as="geometry">
            <mxPoint x="150" y="750" as="sourcePoint" />
            <mxPoint x="30" y="820" as="targetPoint" />
            <Array as="points">
              <mxPoint x="104" y="710" />
              <mxPoint x="224" y="710" />
            </Array>
          </mxGeometry>
        </mxCell>
        <mxCell id="-PPpTfQ4AtpIcLz1wX6L-15" value="" style="rounded=0;html=1;jettySize=auto;orthogonalLoop=1;fontSize=11;endArrow=block;endFill=0;endSize=8;strokeWidth=1;shadow=0;labelBackgroundColor=none;edgeStyle=orthogonalEdgeStyle;entryX=0;entryY=0.5;entryDx=0;entryDy=0;exitX=1;exitY=0.5;exitDx=0;exitDy=0;" edge="1" parent="WIyWlLk6GJQsqaUBKTNV-1" source="-PPpTfQ4AtpIcLz1wX6L-4" target="-PPpTfQ4AtpIcLz1wX6L-6">
          <mxGeometry relative="1" as="geometry">
            <mxPoint x="510" y="430" as="sourcePoint" />
            <mxPoint x="390" y="500" as="targetPoint" />
          </mxGeometry>
        </mxCell>
        <mxCell id="-PPpTfQ4AtpIcLz1wX6L-16" value="" style="rounded=0;html=1;jettySize=auto;orthogonalLoop=1;fontSize=11;endArrow=block;endFill=0;endSize=8;strokeWidth=1;shadow=0;labelBackgroundColor=none;edgeStyle=orthogonalEdgeStyle;exitX=0.5;exitY=1;exitDx=0;exitDy=0;entryX=0.5;entryY=0;entryDx=0;entryDy=0;" edge="1" parent="WIyWlLk6GJQsqaUBKTNV-1" source="-PPpTfQ4AtpIcLz1wX6L-1" target="-PPpTfQ4AtpIcLz1wX6L-22">
          <mxGeometry relative="1" as="geometry">
            <mxPoint x="328.5" y="335" as="sourcePoint" />
            <mxPoint x="344" y="340" as="targetPoint" />
          </mxGeometry>
        </mxCell>
        <mxCell id="-PPpTfQ4AtpIcLz1wX6L-17" value="" style="rounded=0;html=1;jettySize=auto;orthogonalLoop=1;fontSize=11;endArrow=block;endFill=0;endSize=8;strokeWidth=1;shadow=0;labelBackgroundColor=none;edgeStyle=orthogonalEdgeStyle;entryX=0;entryY=0.5;entryDx=0;entryDy=0;exitX=1;exitY=0.5;exitDx=0;exitDy=0;" edge="1" parent="WIyWlLk6GJQsqaUBKTNV-1" source="-PPpTfQ4AtpIcLz1wX6L-5" target="-PPpTfQ4AtpIcLz1wX6L-8">
          <mxGeometry relative="1" as="geometry">
            <mxPoint x="320" y="330" as="sourcePoint" />
            <mxPoint x="200" y="400" as="targetPoint" />
          </mxGeometry>
        </mxCell>
        <mxCell id="-PPpTfQ4AtpIcLz1wX6L-18" value="" style="rounded=0;html=1;jettySize=auto;orthogonalLoop=1;fontSize=11;endArrow=block;endFill=0;endSize=8;strokeWidth=1;shadow=0;labelBackgroundColor=none;edgeStyle=orthogonalEdgeStyle;entryX=0.5;entryY=0;entryDx=0;entryDy=0;exitX=0.5;exitY=1;exitDx=0;exitDy=0;" edge="1" parent="WIyWlLk6GJQsqaUBKTNV-1" source="-PPpTfQ4AtpIcLz1wX6L-5" target="-PPpTfQ4AtpIcLz1wX6L-4">
          <mxGeometry relative="1" as="geometry">
            <mxPoint x="300" y="390" as="sourcePoint" />
            <mxPoint x="180" y="460" as="targetPoint" />
          </mxGeometry>
        </mxCell>
        <mxCell id="-PPpTfQ4AtpIcLz1wX6L-19" value="" style="rounded=0;html=1;jettySize=auto;orthogonalLoop=1;fontSize=11;endArrow=block;endFill=0;endSize=8;strokeWidth=1;shadow=0;labelBackgroundColor=none;edgeStyle=orthogonalEdgeStyle;entryX=0.5;entryY=0;entryDx=0;entryDy=0;exitX=0.5;exitY=1;exitDx=0;exitDy=0;" edge="1" parent="WIyWlLk6GJQsqaUBKTNV-1" source="-PPpTfQ4AtpIcLz1wX6L-3" target="-PPpTfQ4AtpIcLz1wX6L-5">
          <mxGeometry relative="1" as="geometry">
            <mxPoint x="284" y="220" as="sourcePoint" />
            <mxPoint x="164" y="290" as="targetPoint" />
          </mxGeometry>
        </mxCell>
        <mxCell id="-PPpTfQ4AtpIcLz1wX6L-20" value="" style="rounded=0;html=1;jettySize=auto;orthogonalLoop=1;fontSize=11;endArrow=block;endFill=0;endSize=8;strokeWidth=1;shadow=0;labelBackgroundColor=none;edgeStyle=orthogonalEdgeStyle;entryX=0.5;entryY=0;entryDx=0;entryDy=0;exitX=0.5;exitY=1;exitDx=0;exitDy=0;" edge="1" parent="WIyWlLk6GJQsqaUBKTNV-1" source="-PPpTfQ4AtpIcLz1wX6L-0" target="-PPpTfQ4AtpIcLz1wX6L-3">
          <mxGeometry relative="1" as="geometry">
            <mxPoint x="294" y="230" as="sourcePoint" />
            <mxPoint x="174" y="300" as="targetPoint" />
          </mxGeometry>
        </mxCell>
        <mxCell id="-PPpTfQ4AtpIcLz1wX6L-22" value="&lt;span style=&quot;color: rgb(0, 0, 0); font-family: Helvetica; font-size: 12px; font-style: normal; font-variant-ligatures: normal; font-variant-caps: normal; font-weight: 400; letter-spacing: normal; orphans: 2; text-align: center; text-indent: 0px; text-transform: none; widows: 2; word-spacing: 0px; -webkit-text-stroke-width: 0px; background-color: rgb(251, 251, 251); text-decoration-thickness: initial; text-decoration-style: initial; text-decoration-color: initial; float: none; display: inline !important;&quot;&gt;is there at least one table?&lt;/span&gt;" style="rhombus;whiteSpace=wrap;html=1;strokeColor=default;fontFamily=Helvetica;fontSize=12;fontColor=default;fillColor=default;" vertex="1" parent="WIyWlLk6GJQsqaUBKTNV-1">
          <mxGeometry x="303.5" y="340" width="80" height="70" as="geometry" />
        </mxCell>
        <mxCell id="-PPpTfQ4AtpIcLz1wX6L-25" value="" style="endArrow=none;html=1;rounded=0;fontFamily=Helvetica;fontSize=12;fontColor=default;exitX=0.5;exitY=1;exitDx=0;exitDy=0;" edge="1" parent="WIyWlLk6GJQsqaUBKTNV-1" source="-PPpTfQ4AtpIcLz1wX6L-1">
          <mxGeometry width="50" height="50" relative="1" as="geometry">
            <mxPoint x="360" y="410" as="sourcePoint" />
            <mxPoint x="104" y="330" as="targetPoint" />
            <Array as="points">
              <mxPoint x="304" y="310" />
              <mxPoint x="104" y="310" />
            </Array>
          </mxGeometry>
        </mxCell>
        <mxCell id="-PPpTfQ4AtpIcLz1wX6L-26" value="" style="endArrow=none;html=1;rounded=0;fontFamily=Helvetica;fontSize=12;fontColor=default;exitX=0;exitY=0.5;exitDx=0;exitDy=0;entryX=0.5;entryY=1;entryDx=0;entryDy=0;" edge="1" parent="WIyWlLk6GJQsqaUBKTNV-1" source="-PPpTfQ4AtpIcLz1wX6L-22" target="-PPpTfQ4AtpIcLz1wX6L-3">
          <mxGeometry width="50" height="50" relative="1" as="geometry">
            <mxPoint x="314" y="385" as="sourcePoint" />
            <mxPoint x="114" y="340" as="targetPoint" />
            <Array as="points">
              <mxPoint x="304" y="430" />
              <mxPoint x="104" y="430" />
            </Array>
          </mxGeometry>
        </mxCell>
        <mxCell id="-PPpTfQ4AtpIcLz1wX6L-29" value="Yes" style="text;html=1;strokeColor=none;fillColor=none;align=center;verticalAlign=middle;whiteSpace=wrap;rounded=0;fontSize=12;fontFamily=Helvetica;fontColor=default;" vertex="1" parent="WIyWlLk6GJQsqaUBKTNV-1">
          <mxGeometry x="190" y="420" width="30" height="10" as="geometry" />
        </mxCell>
        <mxCell id="-PPpTfQ4AtpIcLz1wX6L-30" value="" style="rounded=0;html=1;jettySize=auto;orthogonalLoop=1;fontSize=11;endArrow=block;endFill=0;endSize=8;strokeWidth=1;shadow=0;labelBackgroundColor=none;edgeStyle=orthogonalEdgeStyle;entryX=0;entryY=0.5;entryDx=0;entryDy=0;exitX=0.5;exitY=1;exitDx=0;exitDy=0;" edge="1" parent="WIyWlLk6GJQsqaUBKTNV-1" source="-PPpTfQ4AtpIcLz1wX6L-4" target="-PPpTfQ4AtpIcLz1wX6L-7">
          <mxGeometry relative="1" as="geometry">
            <mxPoint x="174" y="595" as="sourcePoint" />
            <mxPoint x="230" y="595" as="targetPoint" />
            <Array as="points">
              <mxPoint x="104" y="660" />
            </Array>
          </mxGeometry>
        </mxCell>
        <mxCell id="-PPpTfQ4AtpIcLz1wX6L-33" value="" style="ellipse;whiteSpace=wrap;html=1;aspect=fixed;strokeColor=default;fontFamily=Helvetica;fontSize=12;fontColor=default;fillColor=default;" vertex="1" parent="WIyWlLk6GJQsqaUBKTNV-1">
          <mxGeometry x="203.5" y="855" width="40" height="40" as="geometry" />
        </mxCell>
        <mxCell id="-PPpTfQ4AtpIcLz1wX6L-32" value="" style="ellipse;whiteSpace=wrap;html=1;aspect=fixed;treeFolding=0;treeMoving=0;collapsible=0;dropTarget=0;container=0;fixDash=0;fillColor=#000000;fontColor=#ffffff;strokeColor=#000000;" vertex="1" parent="WIyWlLk6GJQsqaUBKTNV-1">
          <mxGeometry x="208.5" y="860" width="30" height="30" as="geometry" />
        </mxCell>
        <mxCell id="-PPpTfQ4AtpIcLz1wX6L-34" value="" style="rounded=0;html=1;jettySize=auto;orthogonalLoop=1;fontSize=11;endArrow=block;endFill=0;endSize=8;strokeWidth=1;shadow=0;labelBackgroundColor=none;edgeStyle=orthogonalEdgeStyle;exitX=0.5;exitY=1;exitDx=0;exitDy=0;" edge="1" parent="WIyWlLk6GJQsqaUBKTNV-1" source="-PPpTfQ4AtpIcLz1wX6L-9" target="-PPpTfQ4AtpIcLz1wX6L-33">
          <mxGeometry relative="1" as="geometry">
            <mxPoint x="114" y="625" as="sourcePoint" />
            <mxPoint x="230" y="670" as="targetPoint" />
            <Array as="points">
              <mxPoint x="224" y="830" />
              <mxPoint x="224" y="830" />
            </Array>
          </mxGeometry>
        </mxCell>
      </root>
    </mxGraphModel>
  </diagram>
</mxfile>
